<svg width="79" height="53" viewBox="0 0 79 53" fill="none" xmlns="http://www.w3.org/2000/svg">
<g filter="url(#filter0_d_213_380)">
<path d="M73.6115 36.2192L60.7848 44.4006C60.1831 44.7844 59.367 45 58.5161 45C57.6651 45 56.849 44.7844 56.2473 44.4006C55.6456 44.0168 55.3076 43.4963 55.3076 42.9535C55.3076 42.4107 55.6456 41.8902 56.2473 41.5064L63.6027 36.8175H7.2092C6.35874 36.8175 5.54311 36.602 4.94174 36.2184C4.34037 35.8348 4.00252 35.3146 4.00252 34.7721C4.00252 34.2296 4.34037 33.7094 4.94174 33.3258C5.54311 32.9422 6.35874 32.7268 7.2092 32.7268H63.6027L56.2473 28.0378C55.6456 27.654 55.3076 27.1335 55.3076 26.5907C55.3076 26.0479 55.6456 25.5274 56.2473 25.1436C56.849 24.7598 57.6651 24.5442 58.5161 24.5442C59.367 24.5442 60.1831 24.7598 60.7848 25.1436L73.6115 33.325C73.9097 33.515 74.1462 33.7406 74.3075 33.9889C74.4689 34.2372 74.552 34.5033 74.552 34.7721C74.552 35.0409 74.4689 35.307 74.3075 35.5553C74.1462 35.8036 73.9097 36.0292 73.6115 36.2192ZM17.7672 19.8564C18.3689 20.2402 19.185 20.4558 20.0359 20.4558C20.8869 20.4558 21.7029 20.2402 22.3046 19.8564C22.9063 19.4726 23.2444 18.9521 23.2444 18.4093C23.2444 17.8665 22.9063 17.346 22.3046 16.9622L14.9493 12.2732H71.3428C72.1932 12.2732 73.0089 12.0578 73.6102 11.6742C74.2116 11.2906 74.5495 10.7704 74.5495 10.2279C74.5495 9.68543 74.2116 9.16519 73.6102 8.78161C73.0089 8.39803 72.1932 8.18254 71.3428 8.18254H14.9493L22.3046 3.49357C22.9063 3.10978 23.2444 2.58925 23.2444 2.04649C23.2444 1.50373 22.9063 0.983193 22.3046 0.599402C21.7029 0.215611 20.8869 8.08779e-09 20.0359 0C19.185 -8.08779e-09 18.3689 0.215611 17.7672 0.599402L4.94048 8.78081C4.64233 8.97076 4.40581 9.19634 4.24444 9.44464C4.08306 9.69295 4 9.9591 4 10.2279C4 10.4967 4.08306 10.7628 4.24444 11.0111C4.40581 11.2594 4.64233 11.485 4.94048 11.675L17.7672 19.8564Z" fill="#F7BF46"/>
</g>
<defs>
<filter id="filter0_d_213_380" x="0" y="0" width="78.552" height="53" filterUnits="userSpaceOnUse" color-interpolation-filters="sRGB">
<feFlood flood-opacity="0" result="BackgroundImageFix"/>
<feColorMatrix in="SourceAlpha" type="matrix" values="0 0 0 0 0 0 0 0 0 0 0 0 0 0 0 0 0 0 127 0" result="hardAlpha"/>
<feOffset dy="4"/>
<feGaussianBlur stdDeviation="2"/>
<feComposite in2="hardAlpha" operator="out"/>
<feColorMatrix type="matrix" values="0 0 0 0 0 0 0 0 0 0 0 0 0 0 0 0 0 0 0.14 0"/>
<feBlend mode="normal" in2="BackgroundImageFix" result="effect1_dropShadow_213_380"/>
<feBlend mode="normal" in="SourceGraphic" in2="effect1_dropShadow_213_380" result="shape"/>
</filter>
</defs>
</svg>
