<svg width="46" height="40" viewBox="0 0 46 40" fill="none" xmlns="http://www.w3.org/2000/svg">
<path d="M2 2H5.59988L7.14268 8.125M7.14268 8.125L12.2854 28.5417H39.0273L44.17 8.125H7.14268Z" stroke="black" stroke-width="2.375" stroke-linecap="round" stroke-linejoin="round"/>
<path d="M12.2853 38.75C13.9894 38.75 15.3709 37.3789 15.3709 35.6875C15.3709 33.9961 13.9894 32.625 12.2853 32.625C10.5812 32.625 9.19971 33.9961 9.19971 35.6875C9.19971 37.3789 10.5812 38.75 12.2853 38.75Z" stroke="black" stroke-width="2.375" stroke-linecap="round" stroke-linejoin="round"/>
<path d="M39.027 38.75C40.7311 38.75 42.1126 37.3789 42.1126 35.6875C42.1126 33.9961 40.7311 32.625 39.027 32.625C37.3229 32.625 35.9414 33.9961 35.9414 35.6875C35.9414 37.3789 37.3229 38.75 39.027 38.75Z" stroke="black" stroke-width="2.375" stroke-linecap="round" stroke-linejoin="round"/>
</svg>
