<svg width="78" height="53" viewBox="0 0 78 53" fill="none" xmlns="http://www.w3.org/2000/svg">
<g filter="url(#filter0_d_213_370)">
<path d="M68.7678 0H8.98214C7.6608 0 6.39357 0.474106 5.45924 1.31802C4.5249 2.16193 4 3.30653 4 4.5V40.5C4 41.6935 4.5249 42.8381 5.45924 43.682C6.39357 44.5259 7.6608 45 8.98214 45H68.7678C70.0892 45 71.3564 44.5259 72.2907 43.682C73.2251 42.8381 73.75 41.6935 73.75 40.5V4.5C73.75 3.30653 73.2251 2.16193 72.2907 1.31802C71.3564 0.474106 70.0892 0 68.7678 0ZM68.7678 4.5V11.25H8.98214V4.5H68.7678ZM68.7678 40.5H8.98214V15.75H68.7678V40.5ZM63.7857 33.75C63.7857 34.3467 63.5232 34.919 63.0561 35.341C62.5889 35.7629 61.9553 36 61.2946 36H51.3303C50.6697 36 50.0361 35.7629 49.5689 35.341C49.1017 34.919 48.8393 34.3467 48.8393 33.75C48.8393 33.1533 49.1017 32.581 49.5689 32.159C50.0361 31.7371 50.6697 31.5 51.3303 31.5H61.2946C61.9553 31.5 62.5889 31.7371 63.0561 32.159C63.5232 32.581 63.7857 33.1533 63.7857 33.75ZM43.8571 33.75C43.8571 34.3467 43.5947 34.919 43.1275 35.341C42.6604 35.7629 42.0267 36 41.3661 36H36.3839C35.7232 36 35.0896 35.7629 34.6225 35.341C34.1553 34.919 33.8929 34.3467 33.8929 33.75C33.8929 33.1533 34.1553 32.581 34.6225 32.159C35.0896 31.7371 35.7232 31.5 36.3839 31.5H41.3661C42.0267 31.5 42.6604 31.7371 43.1275 32.159C43.5947 32.581 43.8571 33.1533 43.8571 33.75Z" fill="#F7BF46"/>
</g>
<defs>
<filter id="filter0_d_213_370" x="0" y="0" width="77.75" height="53" filterUnits="userSpaceOnUse" color-interpolation-filters="sRGB">
<feFlood flood-opacity="0" result="BackgroundImageFix"/>
<feColorMatrix in="SourceAlpha" type="matrix" values="0 0 0 0 0 0 0 0 0 0 0 0 0 0 0 0 0 0 127 0" result="hardAlpha"/>
<feOffset dy="4"/>
<feGaussianBlur stdDeviation="2"/>
<feComposite in2="hardAlpha" operator="out"/>
<feColorMatrix type="matrix" values="0 0 0 0 0 0 0 0 0 0 0 0 0 0 0 0 0 0 0.14 0"/>
<feBlend mode="normal" in2="BackgroundImageFix" result="effect1_dropShadow_213_370"/>
<feBlend mode="normal" in="SourceGraphic" in2="effect1_dropShadow_213_370" result="shape"/>
</filter>
</defs>
</svg>
