<svg width="240" height="185" viewBox="0 0 240 185" fill="none" xmlns="http://www.w3.org/2000/svg">
<path d="M104.528 107.392L146.401 137.766C147.411 138.498 148.678 138.899 149.985 138.899C151.292 138.899 152.558 138.498 153.568 137.766C156.316 135.773 156.316 132.06 153.568 130.067L108.383 97.2908C107.297 96.5029 105.934 96.0723 104.529 96.0723C103.123 96.0723 101.76 96.5029 100.674 97.2908L55.4886 130.067C52.7408 132.06 52.7408 135.773 55.4886 137.766C56.4984 138.498 57.7649 138.899 59.0719 138.899C60.3789 138.899 61.6453 138.498 62.6551 137.766L104.528 107.392Z" stroke="#BFBBBB" stroke-width="2" stroke-miterlimit="10" stroke-linecap="round" stroke-linejoin="round"/>
<path d="M104.528 107.392L70.1134 132.356L73.089 182.643H135.968L138.944 132.356L104.528 107.392Z" stroke="#BFBBBB" stroke-width="2" stroke-miterlimit="10" stroke-linecap="round" stroke-linejoin="round"/>
<path d="M104.528 139.763C92.2744 139.763 82.6493 147.036 83.0185 155.733L84.1608 182.643H124.895L126.038 155.733C126.407 147.036 116.782 139.763 104.528 139.763ZM98.273 130.945C98.8489 132.113 100.377 132.643 101.716 132.168C102.571 131.865 103.524 131.696 104.529 131.696C105.534 131.696 106.486 131.865 107.341 132.168C108.68 132.643 110.208 132.113 110.784 130.945C111.063 130.382 111.208 129.774 111.208 129.159C111.208 126.35 108.218 124.072 104.529 124.072C100.84 124.072 97.8493 126.35 97.8493 129.159C97.8493 129.788 97.9991 130.389 98.273 130.945Z" stroke="#BFBBBB" stroke-width="2" stroke-miterlimit="10" stroke-linecap="round" stroke-linejoin="round"/>
<path d="M97.7262 123.186C98.7443 122.481 99.0194 121.29 98.3406 120.527C97.6618 119.763 96.2862 119.716 95.2681 120.421C94.25 121.127 93.9749 122.318 94.6537 123.081C95.3325 123.844 96.7081 123.891 97.7262 123.186Z" stroke="#BFBBBB" stroke-width="2" stroke-miterlimit="10" stroke-linecap="round" stroke-linejoin="round"/>
<path d="M104.528 121.242C106.228 121.242 107.606 120.417 107.606 119.4C107.606 118.382 106.228 117.557 104.528 117.557C102.828 117.557 101.45 118.382 101.45 119.4C101.45 120.417 102.828 121.242 104.528 121.242Z" stroke="#BFBBBB" stroke-width="2" stroke-miterlimit="10" stroke-linecap="round" stroke-linejoin="round"/>
<path d="M113.677 123.797C114.356 123.033 114.081 121.843 113.063 121.137C112.045 120.432 110.669 120.479 109.99 121.242C109.312 122.006 109.587 123.196 110.605 123.902C111.623 124.607 112.998 124.56 113.677 123.797Z" stroke="#BFBBBB" stroke-width="2" stroke-miterlimit="10" stroke-linecap="round" stroke-linejoin="round"/>
<path d="M24.0074 182.603H27.4727" stroke="#00354C" stroke-width="3" stroke-miterlimit="10" stroke-linecap="round" stroke-linejoin="round"/>
<path d="M116.415 140.475C117.287 135.841 119.359 130.539 121.849 126.087C118.426 131.024 115.325 138.08 114.205 144.033C112.498 153.105 113.051 161.437 115.677 166.728L117.25 161.72C115.182 156.423 114.857 148.758 116.415 140.475Z" fill="#D1D1D1"/>
<path d="M44.1665 94.8232C35.5469 94.2994 35.2456 103.077 36.7523 108.929C37.3549 112.121 33.4376 113.983 31.6646 116.42C30.8983 117.488 30.23 118.741 29.8542 120.322C28.8649 124.555 31.6784 128.151 32.1407 132.011C32.2561 132.975 32.2248 133.957 31.9502 134.968C31.6296 136.061 31.027 137.125 30.4243 138.189C25.603 142.977 17.7684 148.563 23.1924 154.947C24.16 156.036 25.2509 157.036 26.4483 157.929C35.8483 165.055 50.0108 164.523 60.8587 160.001C64.776 158.139 68.6933 155.479 69.5973 151.489C70.1999 147.233 68.0906 143.243 64.8797 140.431C63.9286 139.495 62.8864 138.634 61.7651 137.858C60.969 136.805 60.5022 135.792 60.2693 134.809C59.6865 132.349 60.5637 130.064 61.4011 127.753C61.8196 126.598 62.2285 125.436 62.4398 124.243C63.5707 118.239 56.9414 114.515 53.3254 110.259C51.8188 108.397 52.4214 106.003 53.0241 103.875C54.2294 98.8214 49.7095 94.5654 44.3057 94.8237" fill="#01D392"/>
<path d="M45.5215 120.009C44.1501 125.775 43.8413 131.45 44.0293 137.12C44.0763 138.538 48.203 162.13 45.5745 172.453C45.523 173.953 45.523 174.809 45.523 174.809M50.0107 142.313L45.5266 148.032" stroke="#00354C" stroke-width="2" stroke-miterlimit="10" stroke-linecap="round" stroke-linejoin="round"/>
<path d="M52.7298 183.4H38.8547C38.682 183.4 38.5323 183.296 38.4925 183.148L34.9443 169.888H56.6401L53.092 183.148C53.0727 183.22 53.0264 183.284 52.9607 183.33C52.895 183.376 52.8136 183.4 52.7298 183.4Z" fill="#F7BF46"/>
<path opacity="0.68" d="M37.1213 177.226H54.4629M37.3763 178.178H54.208" stroke="#F7BF46" stroke-miterlimit="10"/>
<path d="M118.898 179.615H119.72" stroke="#00354C" stroke-width="6" stroke-miterlimit="10" stroke-linecap="round" stroke-linejoin="round"/>
<path d="M24.5638 135.369C26.3368 135.369 27.7741 133.291 27.7741 130.728C27.7741 128.164 26.3368 126.086 24.5638 126.086C22.7907 126.086 21.3534 128.164 21.3534 130.728C21.3534 133.291 22.7907 135.369 24.5638 135.369Z" fill="#01D392"/>
<path d="M207.173 151.508L210.156 154.141L207.173 156.773L204.191 154.14L207.173 151.508Z" fill="#01D392"/>
<path d="M187.067 75.3765L188.985 77.0695L187.067 78.7625L185.149 77.0694L187.067 75.3765Z" fill="#01D392"/>
<path d="M35.6401 42.1665V45.9735M35.6401 50.8025V54.6097M29.5364 45.2774L33.2714 47.1809M38.0089 49.5954L41.7439 51.4989M29.5364 51.4989L33.2714 49.5954M38.0089 47.1809L41.7439 45.2774M224.283 58.4263V61.0685M224.283 64.4201V67.0623M220.047 60.5852L222.639 61.9064M225.928 63.5822L228.52 64.9034M220.047 64.9034L222.639 63.5822M225.928 61.9064L228.52 60.5852" stroke="#00354C" stroke-width="2" stroke-miterlimit="10" stroke-linecap="round" stroke-linejoin="round"/>
<path d="M201.203 101.654C203.722 101.654 205.764 99.8514 205.764 97.628C205.764 95.4045 203.722 93.6021 201.203 93.6021C198.684 93.6021 196.642 95.4045 196.642 97.628C196.642 99.8514 198.684 101.654 201.203 101.654Z" fill="#F7BF46"/>
<path d="M201.203 91.7876V95.0107M201.203 100.245V103.468M195.473 94.7075L198.635 96.3192M203.77 98.9366L206.933 100.548M195.473 100.723L198.635 98.9366M203.77 96.3192L206.933 94.7075" stroke="#00354C" stroke-width="2" stroke-miterlimit="10" stroke-linecap="round" stroke-linejoin="round"/>
<path d="M133.879 10.7241V14.6255M136.088 12.6747H131.669M236.08 147.506V151.407M238.29 149.456H233.87M81.0457 78.5834V80.9774M82.4017 79.7804H79.6897" stroke="#00354C" stroke-width="2" stroke-miterlimit="10" stroke-linecap="round" stroke-linejoin="round"/>
<path d="M67.6581 98.0366L69.7941 99.9223L67.658 101.808L65.522 99.9222L67.6581 98.0366Z" fill="#F7BF46"/>
<path d="M1 88.7075H8.93222M11.6442 88.7075H14.6961M5.40786 92.1006H14.2236M173.372 121.655H181.304M184.016 121.655H187.068M177.78 124.516H186.595" stroke="#00354C" stroke-width="2" stroke-miterlimit="10" stroke-linecap="round" stroke-linejoin="round"/>
<path d="M197.724 182.603H210.156M33.8008 182.603H58.7108" stroke="#00354C" stroke-width="2" stroke-miterlimit="10" stroke-linecap="round" stroke-linejoin="round"/>
<path d="M178.28 39.0104C186.891 39.0104 193.873 32.8477 193.873 25.2457C193.873 17.6436 186.891 11.481 178.28 11.481C169.668 11.481 162.687 17.6436 162.687 25.2457C162.687 32.8477 169.668 39.0104 178.28 39.0104Z" fill="#F7BF46"/>
<path d="M193.873 28.1036C202.484 28.1036 209.466 21.941 209.466 14.3389C209.466 6.73689 202.484 0.574219 193.873 0.574219C185.261 0.574219 178.28 6.73689 178.28 14.3389C178.28 21.941 185.261 28.1036 193.873 28.1036Z" fill="#F7BF46"/>
<path d="M215.483 31.837C223.342 31.837 229.713 26.2131 229.713 19.2757C229.713 12.3383 223.342 6.71436 215.483 6.71436C207.625 6.71436 201.254 12.3383 201.254 19.2757C201.254 26.2131 207.625 31.837 215.483 31.837Z" fill="#F7BF46"/>
<path d="M193.873 46.7535C202.449 46.7535 209.401 40.6162 209.401 33.0454C209.401 25.4747 202.449 19.3374 193.873 19.3374C185.296 19.3374 178.344 25.4747 178.344 33.0454C178.344 40.6162 185.296 46.7535 193.873 46.7535Z" fill="#F7BF46"/>
<path d="M210.38 42.166C216.086 42.166 220.712 38.0826 220.712 33.0454C220.712 28.0082 216.086 23.9248 210.38 23.9248C204.674 23.9248 200.048 28.0082 200.048 33.0454C200.048 38.0826 204.674 42.166 210.38 42.166Z" fill="#F7BF46"/>
<path d="M177.777 61.148C177.777 63.2295 177.188 64.4706 174.83 64.4706C172.472 64.4706 170.561 63.6756 170.561 61.5941C170.561 59.5127 171.811 57.6653 174.169 57.6653C176.527 57.6653 177.777 59.0666 177.777 61.148ZM186.25 50.802C186.25 53.928 185.365 55.7921 181.824 55.7921C178.283 55.7921 175.412 54.5978 175.412 51.4717C175.412 48.3457 178.283 45.8115 181.824 45.8115C185.365 45.8115 186.25 47.6759 186.25 50.802Z" fill="#F7BF46"/>
<path d="M183.272 144.291C183.335 145.001 183.369 145.719 183.369 146.443C183.369 161.32 169.81 173.381 153.085 173.381C139.036 173.381 127.222 164.87 123.801 153.329C125.034 167.2 138.078 178.115 153.989 178.115C170.714 178.115 184.273 166.054 184.273 151.177C184.273 148.797 183.924 146.489 183.272 144.291Z" fill="white"/>
<path d="M183.272 144.291C183.335 145.001 183.369 145.719 183.369 146.443C183.369 161.32 169.81 173.381 153.085 173.381C139.036 173.381 127.222 164.87 123.801 153.329C125.034 167.2 138.078 178.115 153.989 178.115C170.714 178.115 184.273 166.054 184.273 151.177C184.273 148.797 183.924 146.489 183.272 144.291Z" stroke="#00354C" stroke-width="2" stroke-miterlimit="10" stroke-linecap="round" stroke-linejoin="round"/>
<path d="M130.325 120.1C125.213 118.089 116.287 132.968 114.205 144.033C112.498 153.105 113.051 161.437 115.677 166.727L130.325 120.1Z" fill="white"/>
<path d="M130.325 120.1C125.213 118.089 116.287 132.968 114.205 144.033C112.498 153.105 113.051 161.437 115.677 166.727L130.325 120.1Z" stroke="#00354C" stroke-width="2" stroke-miterlimit="10" stroke-linecap="round" stroke-linejoin="round"/>
<path d="M146.109 120.1C151.221 118.089 160.147 132.968 162.229 144.033C163.935 153.105 163.383 161.437 160.757 166.727L146.109 120.1Z" fill="white"/>
<path d="M160.019 140.475C159.148 135.841 157.075 130.539 154.585 126.087C158.008 131.024 161.109 138.08 162.229 144.033C163.936 153.105 163.383 161.437 160.757 166.728L159.184 161.72C161.252 156.423 161.577 148.758 160.019 140.475Z" fill="#D1D1D1"/>
<path d="M146.109 120.1C151.221 118.089 160.147 132.968 162.229 144.033C163.935 153.105 163.383 161.437 160.757 166.727L146.109 120.1Z" stroke="#00354C" stroke-width="2" stroke-miterlimit="10" stroke-linecap="round" stroke-linejoin="round"/>
<path d="M161.653 168.712C161.33 164.288 148.306 116.369 144.766 113.975H131.859C128.319 116.369 115.295 164.288 114.972 168.712C114.571 174.209 112.521 182.603 124.37 182.603H152.255C164.103 182.603 162.054 174.209 161.653 168.712Z" fill="white"/>
<path d="M116.418 161.936C116.418 161.936 115.493 168.956 119.933 171.546C123.426 173.583 126.495 174.41 132.264 175.352C135.354 175.857 138.739 176.068 138.739 176.068L139.116 182.374L114.586 182.54C114.586 182.54 114.166 173.674 114.763 171.014C115.361 168.354 115.666 163.941 116.418 161.936Z" fill="#D1D1D1"/>
<path d="M160.468 161.936C160.468 161.936 161.393 168.956 156.952 171.546C153.459 173.583 150.391 174.41 144.621 175.352C141.531 175.857 138.146 176.068 138.146 176.068L137.77 182.374L162.3 182.54C162.3 182.54 162.72 173.674 162.122 171.014C161.525 168.354 161.219 163.941 160.468 161.936Z" fill="#D1D1D1"/>
<path d="M149.103 123.633C148.34 123.451 147.616 123.352 146.982 123.352C143.321 123.352 140.37 125.073 140.37 129.077C140.37 133.081 146.982 137.853 150.643 137.853C151.633 137.853 152.571 137.614 153.415 137.188C151.947 132.268 150.456 127.534 149.103 123.633ZM121.224 158.095C125.298 158.095 128.6 154.562 128.6 150.204C128.6 146.018 125.553 142.595 121.702 142.331C120.2 147.545 118.785 152.718 117.644 157.103C118.704 157.734 119.924 158.095 121.224 158.095Z" fill="#F7BF46"/>
<path d="M130.946 115.122C130.946 115.122 133.089 116.639 138.011 116.639C141.978 116.639 145.488 115.122 145.488 115.122L145.196 114.079L131.183 114.069L130.946 115.122Z" fill="#D1D1D1"/>
<path d="M161.653 168.712C161.33 164.288 148.306 116.369 144.766 113.975H131.859C128.319 116.369 115.295 164.288 114.972 168.712C114.571 174.209 112.521 182.603 124.37 182.603H152.255C164.103 182.603 162.054 174.209 161.653 168.712Z" stroke="#00354C" stroke-width="2" stroke-miterlimit="10" stroke-linecap="round" stroke-linejoin="round"/>
<path d="M160.949 94.8232C160.368 89.6274 157.497 76.5299 154.241 67.3412C149.043 52.6744 142.973 48.8515 139.452 48.4676C139.077 48.4267 138.313 48.4038 138.313 48.4038C138.313 48.4038 137.548 48.4131 137.173 48.4538C133.652 48.8377 127.582 52.6396 122.384 67.3066C119.128 76.4953 116.257 89.6285 115.676 94.8243C114.368 106.517 120.743 112.988 128.983 113.912C131.34 114.177 135.98 114.178 138.313 114.178C140.645 114.178 145.285 114.177 147.642 113.912C155.882 112.988 162.257 106.516 160.949 94.8232Z" fill="white"/>
<path d="M138.312 98.5864C141.461 98.5864 144.014 96.8174 144.014 94.6352C144.014 92.4531 141.461 90.6841 138.312 90.6841C135.163 90.6841 132.61 92.4531 132.61 94.6352C132.61 96.8174 135.163 98.5864 138.312 98.5864Z" fill="#D1D1D1"/>
<path d="M133.089 49.9397C133.089 49.9397 130.377 58.9557 124.702 61.5633C126.14 58.6868 128.107 55.2597 128.107 55.2597C128.107 55.2597 131.482 50.3387 133.089 49.9397ZM139.453 48.4676C139.453 48.4676 146.8 59.6484 152.934 63.9182C152.934 63.9182 151.546 55.9909 150.19 53.5969C148.834 51.2029 142.199 47.7273 139.453 48.4676Z" fill="#D1D1D1"/>
<path d="M123.841 91.3974C135.691 86.8914 142.76 78.0373 139.629 71.6211C137.435 67.1246 130.812 65.023 122.968 65.7161C122.767 66.2445 122.573 66.7746 122.384 67.3063C119.369 75.8146 116.686 87.7003 115.843 93.5395C118.453 93.1264 121.154 92.4191 123.841 91.3974Z" fill="#F7BF46"/>
<path d="M155.278 99.587C151.918 103.91 144.531 106.86 136.652 106.86C129.373 106.86 124.986 103.072 122.416 98.3882" stroke="#00354C" stroke-width="2" stroke-miterlimit="10" stroke-linecap="round" stroke-linejoin="round"/>
<path d="M177.5 180.919C172.918 177.112 164.13 175.238 155.523 175.809C148.157 176.297 142.715 178.495 140.57 181.416C140.201 181.918 140.655 182.599 141.359 182.599L176.148 182.603C177.544 182.603 178.348 181.624 177.5 180.919Z" fill="white"/>
<path d="M177.255 180.856C177.151 180.893 177.039 180.911 176.926 180.911L142.138 180.915C141.722 180.915 141.361 180.827 141.078 180.687C140.98 180.764 140.881 180.84 140.786 180.919C139.938 181.623 140.742 182.603 142.138 182.603L176.926 182.599C177.63 182.599 178.084 181.918 177.715 181.416C177.573 181.223 177.419 181.036 177.255 180.856Z" fill="#D1D1D1"/>
<path d="M158.674 179.614V182.54M177.5 180.919C172.918 177.112 164.13 175.238 155.523 175.809C148.157 176.297 142.715 178.495 140.57 181.416C140.201 181.918 140.655 182.599 141.359 182.599L176.148 182.603C177.544 182.603 178.348 181.624 177.5 180.919Z" stroke="#00354C" stroke-width="2" stroke-miterlimit="10" stroke-linecap="round" stroke-linejoin="round"/>
<path d="M100.106 180.919C104.688 177.112 113.476 175.238 122.083 175.809C129.449 176.297 134.891 178.495 137.036 181.416C137.405 181.918 136.95 182.599 136.247 182.599L101.458 182.603C100.062 182.603 99.2583 181.624 100.106 180.919Z" fill="white"/>
<path d="M136.576 180.856C136.471 180.893 136.359 180.911 136.247 180.911L101.458 180.915C101.043 180.915 100.681 180.827 100.399 180.687C100.301 180.764 100.201 180.84 100.106 180.919C99.2583 181.623 100.062 182.603 101.458 182.603L136.247 182.599C136.95 182.599 137.405 181.918 137.035 181.416C136.893 181.223 136.74 181.036 136.576 180.856Z" fill="#D1D1D1"/>
<path d="M100.106 180.919C104.688 177.113 113.476 175.238 122.083 175.809C129.449 176.298 134.891 178.495 137.036 181.416C137.405 181.918 136.95 182.599 136.247 182.599L101.458 182.603C100.062 182.603 99.2583 181.624 100.106 180.919ZM160.949 94.8232C160.368 89.6274 157.497 76.5298 154.241 67.3411C149.043 52.6744 142.973 48.8515 139.452 48.4676C139.077 48.4267 138.312 48.4038 138.312 48.4038C138.312 48.4038 137.548 48.4131 137.173 48.4538C133.652 48.8377 127.582 52.6396 122.384 67.3065C119.128 76.4952 116.257 89.6285 115.676 94.8242C114.368 106.517 120.743 112.988 128.983 113.912C131.34 114.177 135.98 114.178 138.312 114.178C140.645 114.178 145.285 114.177 147.642 113.912C155.882 112.988 162.257 106.516 160.949 94.8232Z" stroke="#00354C" stroke-width="2" stroke-miterlimit="10" stroke-linecap="round" stroke-linejoin="round"/>
<path d="M138.904 48.3381C138.904 48.3381 149.411 46.3646 152.317 47.5574C155.298 48.7807 160.7 58.1067 158.47 61.7618C155.053 67.3598 145.051 47.1541 138.904 48.3381Z" fill="white"/>
<path d="M138.904 48.3381C138.904 48.3381 149.411 46.3646 152.317 47.5574C155.298 48.7807 160.7 58.1067 158.47 61.7618C155.053 67.3598 145.051 47.1541 138.904 48.3381Z" stroke="#00354C" stroke-width="2" stroke-miterlimit="10" stroke-linecap="round" stroke-linejoin="round"/>
<path d="M119.156 50.0207L133.717 49.6523C133.717 49.6523 120.218 62.4613 113.99 65.2304C107.761 67.9989 114.126 49.9856 119.156 50.0207Z" fill="white"/>
<path d="M119.156 50.0207L133.717 49.6523C133.717 49.6523 120.218 62.4613 113.99 65.2304C107.761 67.9989 114.126 49.9856 119.156 50.0207Z" stroke="#00354C" stroke-width="2" stroke-miterlimit="10" stroke-linecap="round" stroke-linejoin="round"/>
<path d="M132.538 78.8003C133.377 78.8003 134.056 78.0262 134.056 77.0713C134.056 76.1164 133.377 75.3423 132.538 75.3423C131.7 75.3423 131.021 76.1164 131.021 77.0713C131.021 78.0262 131.7 78.8003 132.538 78.8003Z" fill="#00354C"/>
<path d="M145.27 78.8003C146.108 78.8003 146.787 78.0262 146.787 77.0713C146.787 76.1164 146.108 75.3423 145.27 75.3423C144.431 75.3423 143.752 76.1164 143.752 77.0713C143.752 78.0262 144.431 78.8003 145.27 78.8003Z" fill="#00354C"/>
<path d="M85.4286 182.603H189.89" stroke="#00354C" stroke-width="2" stroke-miterlimit="10" stroke-linecap="round" stroke-linejoin="round"/>
<path d="M168.55 66.2914C168.55 67.7779 168.129 68.6644 166.445 68.6644C164.761 68.6644 163.396 68.0965 163.396 66.6101C163.396 65.1237 164.761 63.9185 166.445 63.9185C168.129 63.9185 168.55 64.805 168.55 66.2914Z" fill="#F7BF46"/>
<path d="M209.73 24.0137C209.972 23.759 210.153 23.4634 210.262 23.1449C210.371 22.8264 210.406 22.4916 210.363 22.161C210.225 21.0316 208.497 20.478 207.769 20.3634C206.81 20.2126 204.797 20.9819 204.797 22.4355V22.4422C204.798 22.7891 204.497 23.0766 204.104 23.0766H190.403C190.015 23.0766 189.708 22.7962 189.711 22.4536C189.714 22.1352 189.642 21.8003 189.466 21.4532C189.065 20.6642 188.089 20.5483 187.217 20.4597C185.703 20.3054 184.128 20.9779 184.128 22.4353C184.128 23.0372 184.373 23.5876 184.78 24.0148C184.917 24.1569 184.992 24.3374 184.991 24.524C184.991 24.7105 184.916 24.8909 184.778 25.0328C184.536 25.2875 184.355 25.5831 184.246 25.9016C184.137 26.2201 184.102 26.5549 184.145 26.8855C184.283 28.0149 185.488 28.4761 186.635 28.5881C188.144 28.7358 189.711 28.0649 189.711 26.6112V26.6046C189.71 26.2577 190.011 25.9702 190.404 25.9702H204.105C204.197 25.9704 204.288 25.9867 204.372 26.0182C204.457 26.0497 204.534 26.0958 204.598 26.1537C204.663 26.2116 204.713 26.2802 204.747 26.3556C204.782 26.4309 204.798 26.5115 204.797 26.5926C204.794 26.9131 204.867 27.2501 205.046 27.5997C205.45 28.387 206.849 28.594 207.403 28.6826C208.363 28.8363 210.38 28.0662 210.38 26.6109C210.381 26.033 210.15 25.4735 209.728 25.0314C209.591 24.8893 209.516 24.7088 209.517 24.5223C209.517 24.3358 209.593 24.1555 209.73 24.0137Z" fill="#F6F6F4"/>
</svg>
