<svg width="46" height="22" viewBox="0 0 46 22" fill="none" xmlns="http://www.w3.org/2000/svg">
<path d="M0.812502 6.64629C0.684477 8.3522 1.2285 10.0406 2.3284 11.3508C1.7233 12.1329 1.30204 13.0412 1.09588 14.0083C0.889716 14.9754 0.903936 15.9765 1.13748 16.9374C1.37103 17.8983 1.81791 18.7942 2.44498 19.5588C3.07205 20.3234 3.86322 20.937 4.75979 21.3541C5.65636 21.7712 6.63534 21.9811 7.6241 21.9682C8.61286 21.9553 9.58603 21.72 10.4714 21.2796C11.3568 20.8393 12.1317 20.2053 12.7386 19.4246C13.3456 18.6439 13.7689 17.7366 13.9774 16.77C13.9802 16.766 13.9836 16.7624 13.9875 16.7595L32.185 16.4354C32.185 16.4354 32.185 16.4354 32.1981 16.4481C32.4402 17.4069 32.8949 18.2988 33.5287 19.0578C34.1625 19.8169 34.9591 20.4235 35.8593 20.8326C36.7595 21.2418 37.7403 21.443 38.7289 21.4214C39.7176 21.3997 40.6886 21.1558 41.5701 20.7077C42.4515 20.2596 43.2208 19.6187 43.8208 18.8327C44.4208 18.0467 44.8362 17.1357 45.036 16.1673C45.2359 15.1988 45.2152 14.1978 44.9754 13.2385C44.7356 12.2792 44.2829 11.3861 43.6509 10.6256C44.256 9.84354 44.6772 8.93525 44.8834 7.96814C45.0896 7.00102 45.0753 5.9999 44.8418 5.03903C44.6082 4.07816 44.1614 3.18221 43.5343 2.41762C42.9072 1.65303 42.1161 1.03943 41.2195 0.622333C40.3229 0.205238 39.3439 -0.00464896 38.3552 0.00824028C37.3664 0.0211295 36.3932 0.256464 35.5078 0.696789C34.6225 1.13711 33.8476 1.77113 33.2406 2.5518C32.6337 3.33248 32.2103 4.23978 32.0019 5.20641C31.9988 5.21017 31.9954 5.21369 31.9917 5.21694L13.789 5.53596C13.789 5.53596 13.789 5.53596 13.7759 5.52325C13.4013 3.99755 12.4937 2.65596 11.2169 1.74056C9.94015 0.825162 8.37825 0.396231 6.81303 0.531159C5.24781 0.666088 3.78236 1.35599 2.68108 2.47639C1.57979 3.59679 0.91521 5.0739 0.807236 6.64121L0.812502 6.64629ZM7.07709 3.47009C7.94413 3.39626 8.8091 3.6338 9.51682 4.14009C10.2245 4.64639 10.7287 5.38831 10.9388 6.23273C11.0953 6.87925 11.4672 7.45321 11.9934 7.86011C12.5196 8.26701 13.1687 8.48258 13.8338 8.47133L32.0482 8.1534C32.713 8.14 33.3535 7.90064 33.8642 7.47472C34.375 7.0488 34.7254 6.4617 34.858 5.81004C34.982 5.23312 35.2437 4.69474 35.6208 4.24082C35.9979 3.78689 36.4791 3.43088 37.0235 3.20315C37.5679 2.97541 38.1593 2.8827 38.7472 2.93292C39.3352 2.98314 39.9023 3.1748 40.4002 3.49156C40.8981 3.80833 41.3119 4.24079 41.6066 4.75209C41.9012 5.26339 42.0678 5.83835 42.0922 6.42795C42.1165 7.01755 41.998 7.6043 41.7466 8.13818C41.4952 8.67205 41.1184 9.13721 40.6484 9.494C40.4796 9.62154 40.3405 9.78414 40.2407 9.97059C40.1408 10.157 40.0825 10.3629 40.0698 10.5741C40.0572 10.7852 40.0904 10.9966 40.1673 11.1937C40.2441 11.3907 40.3628 11.5688 40.5151 11.7156C40.5697 11.7675 40.6281 11.8153 40.6897 11.8588C41.1709 12.199 41.5629 12.6505 41.8323 13.1747C42.1016 13.699 42.2403 14.2806 42.2366 14.87C42.2329 15.4594 42.0869 16.0392 41.811 16.56C41.5351 17.0808 41.1374 17.5273 40.6519 17.8615C40.1664 18.1957 39.6073 18.4076 39.0223 18.4793C38.4372 18.551 37.8436 18.4803 37.2917 18.2733C36.7399 18.0662 36.2462 17.729 35.8527 17.2901C35.4592 16.8513 35.1775 16.324 35.0316 15.7529C34.8751 15.1064 34.5032 14.5324 33.9769 14.1255C33.4507 13.7186 32.8017 13.5031 32.1366 13.5143L13.9222 13.8322C13.259 13.8465 12.6202 14.0856 12.1106 14.5104C11.6011 14.9352 11.2509 15.5205 11.1175 16.1703C10.9934 16.7473 10.7317 17.2856 10.3547 17.7396C9.97761 18.1935 9.49637 18.5495 8.95198 18.7772C8.40759 19.005 7.8162 19.0977 7.22824 19.0475C6.64027 18.9972 6.07317 18.8056 5.57529 18.4888C5.07741 18.172 4.66352 17.7396 4.3689 17.2283C4.07428 16.717 3.90768 16.142 3.8833 15.5524C3.85892 14.9628 3.97748 14.3761 4.22888 13.8422C4.48027 13.3083 4.85705 12.8432 5.32708 12.4864C5.51091 12.3473 5.65929 12.1667 5.76014 11.9595C5.86099 11.7522 5.91146 11.524 5.90744 11.2935C5.90342 11.063 5.84501 10.8367 5.73699 10.6331C5.62897 10.4295 5.47437 10.2542 5.2858 10.1216C4.666 9.69071 4.19463 9.07869 3.93627 8.36941C3.67791 7.66014 3.64521 6.88832 3.84265 6.15973C4.04009 5.43115 4.45801 4.78145 5.03914 4.29967C5.62026 3.81789 6.33616 3.5276 7.08871 3.4686L7.07709 3.47009Z" fill="#030303"/>
</svg>
