<svg width="41" height="36" viewBox="0 0 41 36" fill="none" xmlns="http://www.w3.org/2000/svg">
<path d="M35.875 8.78572C34.8614 8.78572 33.8705 9.08629 33.0277 9.64943C32.1849 10.2126 31.528 11.013 31.1401 11.9495C30.7522 12.8859 30.6507 13.9164 30.8485 14.9106C31.0462 15.9047 31.5343 16.8179 32.2511 17.5346C32.9678 18.2514 33.881 18.7395 34.8752 18.9372C35.8693 19.135 36.8998 19.0335 37.8363 18.6456C38.7727 18.2577 39.5731 17.6008 40.1363 16.758C40.6994 15.9152 41 14.9243 41 13.9107C41 12.5515 40.46 11.2479 39.4989 10.2868C38.5378 9.32567 37.2342 8.78572 35.875 8.78572ZM35.875 16.1071C35.4406 16.1071 35.0159 15.9783 34.6547 15.737C34.2935 15.4956 34.012 15.1526 33.8458 14.7513C33.6795 14.3499 33.636 13.9083 33.7208 13.4822C33.8055 13.0561 34.0147 12.6648 34.3219 12.3576C34.6291 12.0504 35.0204 11.8412 35.4465 11.7565C35.8726 11.6717 36.3142 11.7152 36.7155 11.8815C37.1169 12.0477 37.4599 12.3292 37.7013 12.6904C37.9426 13.0516 38.0714 13.4763 38.0714 13.9107C38.0714 14.4932 37.84 15.0519 37.4281 15.4638C37.0162 15.8757 36.4575 16.1071 35.875 16.1071ZM10.25 13.9107C10.25 12.8971 9.94943 11.9062 9.38628 11.0634C8.82314 10.2206 8.02273 9.56373 7.08625 9.17583C6.14978 8.78793 5.11932 8.68644 4.12516 8.88419C3.13101 9.08194 2.21782 9.57005 1.50108 10.2868C0.784336 11.0035 0.296227 11.9167 0.0984777 12.9109C-0.0992715 13.905 0.00222058 14.9355 0.39012 15.872C0.778019 16.8084 1.4349 17.6089 2.2777 18.172C3.12051 18.7351 4.11137 19.0357 5.125 19.0357C6.48424 19.0357 7.7878 18.4958 8.74892 17.5346C9.71005 16.5735 10.25 15.2699 10.25 13.9107ZM5.125 16.1071C4.69059 16.1071 4.26593 15.9783 3.90473 15.737C3.54353 15.4956 3.26201 15.1526 3.09577 14.7513C2.92952 14.3499 2.88603 13.9083 2.97078 13.4822C3.05553 13.0561 3.26472 12.6648 3.57189 12.3576C3.87907 12.0504 4.27043 11.8412 4.6965 11.7565C5.12257 11.6717 5.56419 11.7152 5.96554 11.8815C6.36688 12.0477 6.70992 12.3292 6.95127 12.6904C7.19261 13.0516 7.32143 13.4763 7.32143 13.9107C7.32143 14.4932 7.09002 15.0519 6.67811 15.4638C6.2662 15.8757 5.70753 16.1071 5.125 16.1071ZM13.9107 10.25C14.9243 10.25 15.9152 9.94943 16.758 9.38628C17.6008 8.82314 18.2577 8.02272 18.6456 7.08625C19.0335 6.14978 19.135 5.11932 18.9372 4.12516C18.7395 3.13101 18.2514 2.21782 17.5346 1.50108C16.8179 0.784336 15.9047 0.296227 14.9106 0.0984777C13.9164 -0.0992715 12.8859 0.00222058 11.9495 0.39012C11.013 0.778019 10.2126 1.4349 9.64943 2.2777C9.08629 3.12051 8.78572 4.11137 8.78572 5.125C8.78572 6.48424 9.32567 7.7878 10.2868 8.74892C11.2479 9.71005 12.5515 10.25 13.9107 10.25ZM13.9107 2.92857C14.3451 2.92857 14.7698 3.05739 15.131 3.29874C15.4922 3.54009 15.7737 3.88312 15.94 4.28446C16.1062 4.68581 16.1497 5.12744 16.0649 5.5535C15.9802 5.97957 15.771 6.37094 15.4638 6.67811C15.1566 6.98529 14.7653 7.19448 14.3392 7.27923C13.9132 7.36398 13.4715 7.32048 13.0702 7.15424C12.6688 6.98799 12.3258 6.70647 12.0845 6.34527C11.8431 5.98407 11.7143 5.55941 11.7143 5.125C11.7143 4.54247 11.9457 3.9838 12.3576 3.57189C12.7695 3.15998 13.3282 2.92857 13.9107 2.92857ZM27.0893 10.25C28.1029 10.25 29.0938 9.94943 29.9366 9.38628C30.7794 8.82314 31.4363 8.02272 31.8242 7.08625C32.2121 6.14978 32.3136 5.11932 32.1158 4.12516C31.9181 3.13101 31.43 2.21782 30.7132 1.50108C29.9965 0.784336 29.0833 0.296227 28.0891 0.0984777C27.095 -0.0992715 26.0645 0.00222058 25.128 0.39012C24.1916 0.778019 23.3911 1.4349 22.828 2.2777C22.2649 3.12051 21.9643 4.11137 21.9643 5.125C21.9643 6.48424 22.5042 7.7878 23.4654 8.74892C24.4265 9.71005 25.7301 10.25 27.0893 10.25ZM27.0893 2.92857C27.5237 2.92857 27.9484 3.05739 28.3096 3.29874C28.6708 3.54009 28.9523 3.88312 29.1185 4.28446C29.2848 4.68581 29.3283 5.12744 29.2435 5.5535C29.1588 5.97957 28.9496 6.37094 28.6424 6.67811C28.3352 6.98529 27.9439 7.19448 27.5178 7.27923C27.0917 7.36398 26.6501 7.32048 26.2488 7.15424C25.8474 6.98799 25.5044 6.70647 25.263 6.34527C25.0217 5.98407 24.8929 5.55941 24.8929 5.125C24.8929 4.54247 25.1243 3.9838 25.5362 3.57189C25.9481 3.15998 26.5068 2.92857 27.0893 2.92857ZM31.3211 21.3896C30.5773 20.9792 29.9217 20.4263 29.3919 19.7623C28.862 19.0984 28.4683 18.3365 28.2333 17.5202C27.7464 15.8459 26.7293 14.3748 25.3348 13.328C23.9402 12.2812 22.2437 11.7153 20.5 11.7153C18.7563 11.7153 17.0598 12.2812 15.6652 13.328C14.2707 14.3748 13.2536 15.8459 12.7667 17.5202C12.2964 19.1627 11.1939 20.5516 9.70089 21.3822C8.26868 22.1572 7.1357 23.3875 6.48116 24.8787C5.82663 26.3698 5.68789 28.0365 6.0869 29.6154C6.4859 31.1942 7.39988 32.5949 8.68426 33.596C9.96865 34.5971 11.5501 35.1414 13.1786 35.1429C14.1544 35.1457 15.1208 34.9508 16.0193 34.57C18.8839 33.3886 22.0996 33.3886 24.9642 34.57C26.6993 35.3246 28.6592 35.3782 30.4329 34.7195C32.2067 34.0609 33.6566 32.7411 34.4786 31.0369C35.3006 29.3327 35.431 27.3764 34.8423 25.5782C34.2537 23.78 32.9917 22.2796 31.3211 21.3914V21.3896ZM27.8214 32.2143C27.2269 32.2148 26.6385 32.0946 26.0917 31.861C22.5054 30.3797 18.4782 30.3797 14.8918 31.861C13.8496 32.3098 12.6742 32.3378 11.6117 31.9393C10.5493 31.5408 9.6823 30.7466 9.19233 29.7231C8.70236 28.6997 8.62744 27.5263 8.98325 26.4488C9.33906 25.3713 10.098 24.4733 11.1011 23.9429C12.1796 23.3473 13.1302 22.5449 13.8984 21.5817C14.6666 20.6184 15.2374 19.5132 15.5782 18.3292C15.8876 17.2632 16.5348 16.3265 17.4224 15.6599C18.31 14.9933 19.39 14.6329 20.5 14.6329C21.61 14.6329 22.69 14.9933 23.5776 15.6599C24.4652 16.3265 25.1124 17.2632 25.4218 18.3292C25.7637 19.5154 26.3363 20.6225 27.1067 21.587C27.8772 22.5516 28.8304 23.3547 29.9117 23.9502C30.7753 24.4134 31.4593 25.1521 31.8547 26.0487C32.2502 26.9454 32.3345 27.9486 32.0942 28.8986C31.8539 29.8487 31.3028 30.6912 30.5286 31.292C29.7543 31.8928 28.8014 32.2174 27.8214 32.2143Z" fill="#030303"/>
</svg>
